<?xml version="1.0" encoding="utf-8"?>
<!-- Generator: Adobe Illustrator 21.0.0, SVG Export Plug-In . SVG Version: 6.00 Build 0)  -->
<svg version="1.1" id="Camada_1" xmlns="http://www.w3.org/2000/svg" xmlns:xlink="http://www.w3.org/1999/xlink" x="0px" y="0px"
	 viewBox="0 0 600 600" style="enable-background:new 0 0 600 600;" xml:space="preserve">
<style type="text/css">
	.st0{fill:#FEFFCA;}
</style>
<g>
	<path class="st0" d="M445.3,121.9v346.9h-84.4V324H229.4v144.7h-83.9V121.9h83.9v134.4h131.5V121.9H445.3z"/>
</g>
<g>
	<path d="M148.3,133.1c-5.5,0-10-4.5-10-10s4.5-10,10-10s10,4.5,10,10S153.8,133.1,148.3,133.1z M148.3,123.1L148.3,123.1
		L148.3,123.1z"/>
</g>
<g>
	<path d="M227.6,133.1c-5.5,0-10-4.5-10-10s4.5-10,10-10s10,4.5,10,10S233.1,133.1,227.6,133.1z M227.6,123.1L227.6,123.1
		L227.6,123.1z"/>
</g>
<g>
	<path d="M227.6,262.9c-5.5,0-10-4.5-10-10s4.5-10,10-10s10,4.5,10,10S233.1,262.9,227.6,262.9z M227.6,252.9L227.6,252.9
		L227.6,252.9z"/>
</g>
<g>
	<path d="M360.4,267.9c-5.5,0-10-4.5-10-10s4.5-10,10-10s10,4.5,10,10S365.9,267.9,360.4,267.9z M360.4,257.9L360.4,257.9
		L360.4,257.9z"/>
</g>
<g>
	<path d="M363.4,134.1c-5.5,0-10-4.5-10-10s4.5-10,10-10s10,4.5,10,10S368.9,134.1,363.4,134.1z M363.4,124.1L363.4,124.1
		L363.4,124.1z"/>
</g>
<g>
	<path d="M444,134.1c-5.5,0-10-4.5-10-10s4.5-10,10-10s10,4.5,10,10S449.5,134.1,444,134.1z M444,124.1L444,124.1L444,124.1z"/>
</g>
<g>
	<path d="M444,299c-5.5,0-10-4.5-10-10s4.5-10,10-10s10,4.5,10,10S449.5,299,444,299z M444,289L444,289L444,289z"/>
</g>
<g>
	<path d="M444,478.7c-5.5,0-10-4.5-10-10s4.5-10,10-10s10,4.5,10,10S449.5,478.7,444,478.7z M444,468.7L444,468.7L444,468.7z"/>
</g>
<g>
	<path d="M363.4,478.7c-5.5,0-10-4.5-10-10s4.5-10,10-10s10,4.5,10,10S368.9,478.7,363.4,478.7z M363.4,468.7L363.4,468.7
		L363.4,468.7z"/>
</g>
<g>
	<path d="M361.4,334.7c-5.5,0-10-4.5-10-10s4.5-10,10-10s10,4.5,10,10S366.9,334.7,361.4,334.7z M361.4,324.7L361.4,324.7
		L361.4,324.7z"/>
</g>
<g>
	<path d="M229.6,334.7c-5.5,0-10-4.5-10-10s4.5-10,10-10s10,4.5,10,10S235.1,334.7,229.6,334.7z M229.6,324.7L229.6,324.7
		L229.6,324.7z"/>
</g>
<g>
	<path d="M227.6,478.7c-5.5,0-10-4.5-10-10s4.5-10,10-10s10,4.5,10,10S233.1,478.7,227.6,478.7z M227.6,468.7L227.6,468.7
		L227.6,468.7z"/>
</g>
<g>
	<path d="M146.3,478.7c-5.5,0-10-4.5-10-10s4.5-10,10-10s10,4.5,10,10S151.8,478.7,146.3,478.7z M146.3,468.7L146.3,468.7
		L146.3,468.7z"/>
</g>
<g>
	<path d="M146.3,299c-5.5,0-10-4.5-10-10s4.5-10,10-10s10,4.5,10,10S151.8,299,146.3,299z M146.3,289L146.3,289L146.3,289z"/>
</g>
</svg>
